name C:\Users\u0101727\Documents\MyRepositories\upper-imu-dc\Results\main_tracking\Case_22\SHRUG01_linearAccelerations_groundFrame.mot
datacolumns 4
datarows 47
range 0.71000000 1.17000000
endheader 
time	radius_imu_x	radius_imu_y	radius_imu_z	
          0.71000000	          0.72552490	         13.35353520	          8.60114266	
          0.72000000	          0.65968107	         12.11426699	          5.75352960	
          0.73000000	          0.52393576	         11.36201418	          3.82521632	
          0.74000000	          0.32283162	         10.88178522	          2.61483343	
          0.75000000	          0.03720046	         10.58918413	          1.95288482	
          0.76000000	         -0.34223125	         10.42837922	          1.67869156	
          0.77000000	         -0.82342734	         10.35885426	          1.65027314	
          0.78000000	         -1.41929976	         10.34450292	          1.74768232	
          0.79000000	         -2.14889918	         10.34271650	          1.86759212	
          0.80000000	         -3.02595030	         10.29111482	          1.89557251	
          0.81000000	         -4.03486714	         10.10826526	          1.67514636	
          0.82000000	         -5.07351086	          9.63305369	          0.90590207	
          0.83000000	         -5.84137570	          8.85339607	         -0.70753002	
          0.84000000	         -5.18769834	          6.64944820	         -4.51777330	
          0.85000000	         -3.41119717	          7.01740488	         -6.77426147	
          0.86000000	         -1.62324983	          8.98085557	         -2.75553947	
          0.87000000	          0.88998357	         11.31430789	          1.76818151	
          0.88000000	          3.05558039	         12.76903400	          3.97772201	
          0.89000000	          4.10468150	         13.15035711	          4.51079948	
          0.90000000	          4.09776051	         12.73930764	          3.38231609	
          0.91000000	          4.37497208	         10.46940560	         -0.78265420	
          0.92000000	          4.58983409	          9.59542721	         -2.92086244	
          0.93000000	          3.62306718	         12.19544944	          1.59204386	
          0.94000000	          3.82099725	         11.65276100	          0.94097619	
          0.95000000	          3.62537973	         11.00388916	         -0.35200426	
          0.96000000	          2.20121108	         11.54456219	          0.16077807	
          0.97000000	          1.04281661	         10.27867104	         -1.89668017	
          0.98000000	         -0.57225182	         10.42389834	         -2.59863141	
          0.99000000	         -1.54098975	          8.84264340	         -3.98966426	
          1.00000000	         -2.78141024	         10.22199319	         -1.25902825	
          1.01000000	         -2.12217587	         10.95706140	          0.98643383	
          1.02000000	         -1.17688789	         11.40579816	          2.37965243	
          1.03000000	         -0.16962477	         11.66084387	          3.13022612	
          1.04000000	          0.63682190	         11.70029249	          3.37145212	
          1.05000000	          1.10701090	         11.57033057	          3.20524520	
          1.06000000	          1.19521922	         11.25809128	          2.61434585	
          1.07000000	          0.95709002	         10.73021131	          1.46190347	
          1.08000000	          0.58662629	          9.94222813	         -0.52280208	
          1.09000000	          0.57628569	          8.88966552	         -3.83812989	
          1.10000000	          2.58197108	          6.40403422	         -7.69036138	
          1.11000000	          1.20691736	          7.47895629	         -4.78790854	
          1.12000000	          1.16092977	          9.31503017	         -1.62172303	
          1.13000000	          1.12719499	         10.21977614	          0.30473641	
          1.14000000	          0.93762480	         10.85390954	          1.46489071	
          1.15000000	          0.61586100	         11.16422509	          2.11502227	
          1.16000000	          0.26909409	         11.24613777	          2.42670941	
          1.17000000	         -0.01042647	         11.17557402	          2.47988181	
